<svg xmlns="http://www.w3.org/2000/svg" width="76" height="15" viewBox="0 0 76 15">
  <g id="social" transform="translate(-1053 -4968)">
    <g id="twitter">
      <g id="twitter-2" data-name="twitter" transform="translate(941.654 4845.694)">
        <path id="Tracé_38" data-name="Tracé 38" d="M154.347,123.845a8.1,8.1,0,0,1-2.121.516,3.38,3.38,0,0,0,1.624-1.815,7.971,7.971,0,0,1-2.345.8,3.915,3.915,0,0,0-2.7-1.036,3.506,3.506,0,0,0-3.693,3.282,2.922,2.922,0,0,0,.1.747,10.966,10.966,0,0,1-7.611-3.43,3,3,0,0,0-.5,1.652,3.2,3.2,0,0,0,1.643,2.731,4.046,4.046,0,0,1-1.674-.409v.04a3.406,3.406,0,0,0,2.962,3.218,4.031,4.031,0,0,1-.973.115,4.1,4.1,0,0,1-.694-.058,3.664,3.664,0,0,0,3.448,2.278,8.012,8.012,0,0,1-4.585,1.406,8.5,8.5,0,0,1-.881-.045,11.439,11.439,0,0,0,5.661,1.473c6.793,0,10.506-5,10.506-9.337,0-.143,0-.285-.01-.425a7.089,7.089,0,0,0,1.843-1.7" fill="#fff"/>
      </g>
      <path id="Color_Overlay" data-name="Color Overlay" d="M1078,4979.526a8.445,8.445,0,0,0,.881.046,8.006,8.006,0,0,0,4.585-1.406,3.663,3.663,0,0,1-3.448-2.278,4.19,4.19,0,0,0,1.666-.057,3.407,3.407,0,0,1-2.963-3.218v-.04a4.063,4.063,0,0,0,1.674.409,3.2,3.2,0,0,1-1.643-2.731,3,3,0,0,1,.5-1.651,10.965,10.965,0,0,0,7.61,3.43,2.957,2.957,0,0,1-.095-.748,3.505,3.505,0,0,1,3.693-3.281,3.907,3.907,0,0,1,2.7,1.036,7.964,7.964,0,0,0,2.345-.8,3.375,3.375,0,0,1-1.624,1.815,8.107,8.107,0,0,0,2.123-.517,7.111,7.111,0,0,1-1.843,1.7c.006.139.009.282.009.425,0,4.336-3.713,9.337-10.506,9.337A11.435,11.435,0,0,1,1078,4979.526Z" fill="#626262"/>
    </g>
    <g id="facebook">
      <g id="facebook-2" data-name="facebook" transform="translate(823.424 4862.761)">
        <path id="Tracé_40" data-name="Tracé 40" d="M229.576,109.869h1.714v-1.406a2.809,2.809,0,0,1,3.213-3.223,12.667,12.667,0,0,1,3.073.26l-.428,2.144a6.8,6.8,0,0,0-1.381-.174c-.667,0-1.263.2-1.263.764v1.635h2.733l-.19,2.095H234.5v7.276H231.29v-7.276h-1.714Z" fill="#fff"/>
      </g>
      <path id="Color_Overlay-2" data-name="Color Overlay" d="M1054.714,4982v-7.276H1053v-2.1h1.714v-1.405a2.81,2.81,0,0,1,3.213-3.224,12.655,12.655,0,0,1,3.072.26l-.428,2.144a6.823,6.823,0,0,0-1.382-.173c-.666,0-1.263.2-1.263.764v1.634h2.733l-.19,2.1h-2.543V4982Z" fill="#626262"/>
    </g>
    <g id="instagram">
      <g id="instagram-2" data-name="instagram" transform="translate(595.178 4810.24)">
        <path id="Tracé_42" data-name="Tracé 42" d="M530.922,157.76h-9.2a2.9,2.9,0,0,0-2.9,2.9v9.2a2.9,2.9,0,0,0,2.9,2.9h9.2a2.9,2.9,0,0,0,2.9-2.9v-9.2A2.9,2.9,0,0,0,530.922,157.76Zm.833,1.729h.332v2.543l-2.535.008-.009-2.543Zm-7.573,4.232a2.635,2.635,0,1,1-.5,1.54A2.635,2.635,0,0,1,524.182,163.72Zm8.178,6.141a1.438,1.438,0,0,1-1.438,1.437h-9.2a1.438,1.438,0,0,1-1.438-1.437V163.72h2.239a4.1,4.1,0,1,0,7.6,0h2.239Z" fill="#fff"/>
      </g>
      <path id="Color_Overlay-3" data-name="Color Overlay" d="M1116.9,4983a2.9,2.9,0,0,1-2.9-2.9v-9.2a2.9,2.9,0,0,1,2.9-2.9h9.2a2.9,2.9,0,0,1,2.9,2.9v9.2a2.9,2.9,0,0,1-2.9,2.9Zm-1.437-2.9a1.438,1.438,0,0,0,1.437,1.437h9.2a1.438,1.438,0,0,0,1.438-1.437v-6.142h-2.24a4.1,4.1,0,1,1-7.6,0h-2.239Zm3.9-6.142a2.632,2.632,0,1,0,2.14-1.1A2.629,2.629,0,0,0,1119.36,4973.959Zm7.573-4.23-2.212.006.009,2.542,2.535-.008v-2.542Z" fill="#626262"/>
    </g>
  </g>
</svg>
